
<svg viewBox="0 0 2000 813" >
<g transform="translate(0.000000,813.000000) scale(0.100000,-0.100000)"
fill='currentColor' stroke="currentColor">
<path fill='currentColor' d="M2041 8119 c-290 -44 -535 -298 -600 -619 -6 -30 -144 -1367 -307
-2970 -318 -3136 -310 -3045 -269 -3194 43 -160 102 -262 215 -377 95 -95 175
-145 285 -178 41 -12 281 -48 585 -86 283 -37 634 -81 780 -100 146 -19 427
-55 625 -80 375 -48 567 -73 1170 -150 396 -51 440 -52 572 -10 249 79 444
311 499 593 8 42 148 1389 310 2992 320 3154 309 3015 265 3180 -59 222 -198
404 -380 499 -100 52 -151 64 -391 95 -1055 137 -3179 406 -3230 410 -36 3
-94 0 -129 -5z"/>
<path fill='currentColor' d="M635 7409 c-215 -31 -418 -186 -523 -401 -97 -196 -86 179 -90 -3263
-2 -2756 -1 -3047 14 -3120 57 -289 269 -527 534 -602 62 -17 148 -18 1840
-18 1704 0 1778 1 1843 19 37 10 66 20 64 22 -4 4 -202 30 -1757 229 -1669
213 -1576 200 -1651 227 -292 107 -498 418 -499 754 0 97 584 5869 604 5970 8
39 25 99 39 133 l25 61 -192 -1 c-105 -1 -218 -5 -251 -10z"/>
<path fill='currentColor' d="M17203 6718 l-161 -163 82 -210 c46 -115 113 -288 151 -383 l67 -173
32 3 31 3 148 379 149 379 -163 163 c-90 90 -166 164 -169 164 -3 0 -78 -73
-167 -162z"/>
<path fill='currentColor' d="M10050 6570 c-205 -25 -368 -76 -500 -154 -172 -102 -273 -213 -365
-399 -99 -200 -131 -385 -122 -711 6 -226 24 -337 81 -488 96 -255 290 -454
539 -552 158 -63 357 -96 568 -96 692 0 1105 341 1179 972 18 153 8 462 -20
590 -96 450 -368 719 -820 813 -141 29 -405 41 -540 25z m373 -680 c156 -59
233 -182 258 -409 17 -163 -7 -344 -62 -452 -35 -70 -112 -141 -187 -171 -49
-19 -75 -23 -182 -23 -107 0 -133 4 -182 23 -122 49 -203 160 -233 318 -19 98
-19 309 0 399 39 183 147 301 307 335 70 15 215 5 281 -20z"/>
<path fill='currentColor' d="M18850 6574 c-226 -27 -346 -57 -474 -118 -209 -99 -346 -257 -397
-454 -21 -84 -26 -244 -9 -333 14 -71 58 -163 105 -217 98 -112 240 -181 654
-318 363 -120 396 -139 389 -221 -6 -75 -101 -101 -305 -84 -226 20 -481 88
-692 187 -52 24 -96 44 -97 44 -2 0 -4 -155 -4 -345 l0 -344 43 -25 c98 -58
283 -116 482 -152 121 -22 442 -30 575 -14 420 48 685 241 765 555 20 78 20
262 0 340 -37 145 -121 258 -258 349 -140 92 -232 133 -562 253 -212 77 -283
111 -319 153 -36 43 -36 101 0 129 53 42 69 40 515 -74 232 -58 426 -104 433
-102 9 4 166 465 166 489 0 4 -90 68 -201 143 -196 133 -202 136 -272 145 -77
11 -479 21 -537 14z"/>
<path fill='currentColor' d="M7937 6528 c-3 -13 -11 -59 -18 -103 -11 -77 -10 -86 26 -254 l37
-174 -5 -481 c-4 -499 -8 -542 -49 -621 -33 -62 -104 -105 -173 -105 -20 0
-179 45 -353 99 -174 55 -325 101 -335 103 -16 3 -33 -38 -117 -277 -54 -154
-95 -283 -92 -286 4 -3 115 -56 247 -117 221 -103 248 -113 340 -127 116 -17
350 -20 462 -4 361 49 617 225 730 502 71 174 79 325 68 1250 l-7 617 -378 0
-378 0 -5 -22z"/>
<path fill='currentColor' d="M11776 6446 c-16 -95 -16 -114 -2 -251 13 -122 16 -307 16 -1071 l0
-924 380 0 380 0 0 33 c0 17 -7 145 -15 282 -8 138 -15 312 -15 388 l0 137
350 0 350 0 0 -420 0 -420 380 0 380 0 0 429 c0 378 -2 443 -20 557 -18 118
-20 180 -20 747 l0 617 -360 0 -360 0 0 -450 0 -450 -350 0 -350 0 0 450 0
450 -364 0 -363 0 -17 -104z"/>
<path fill='currentColor' d="M14412 6442 l-32 -98 35 -174 35 -173 0 -899 0 -898 380 0 380 0 0
43 c0 23 -7 231 -15 462 -19 490 -17 630 5 630 8 0 202 -255 430 -567 l415
-567 333 0 332 -1 0 933 c0 748 3 959 15 1067 8 74 15 181 15 238 l0 102 -380
0 -380 0 0 -555 c0 -664 8 -636 -122 -412 -69 119 -138 211 -413 555 l-330
412 -335 0 -336 0 -32 -98z"/>
<path fill='currentColor' d="M9030 3654 c-302 -36 -505 -111 -680 -252 -175 -139 -302 -362 -356
-622 -24 -118 -30 -448 -10 -596 37 -280 133 -491 294 -647 221 -216 569 -313
1029 -287 274 16 489 69 726 180 l27 13 0 329 c0 180 -2 328 -4 328 -2 0 -41
-17 -87 -39 -101 -46 -249 -95 -379 -124 -130 -29 -441 -31 -539 -3 -173 48
-269 150 -306 323 -19 89 -19 280 0 361 46 194 197 344 361 359 59 5 60 5 374
-140 l314 -145 146 242 c81 132 155 255 165 273 l18 31 -29 25 c-369 311 -375
315 -454 336 -42 12 -121 28 -175 36 -100 15 -369 27 -435 19z"/>
<path fill='currentColor' d="M11326 3650 c-330 -38 -553 -134 -722 -311 -203 -214 -294 -488 -294
-889 0 -323 57 -554 188 -756 114 -177 311 -319 527 -382 255 -74 557 -86 818
-32 356 73 597 253 737 553 79 168 110 343 110 617 0 336 -51 547 -185 756
-113 177 -318 323 -545 387 -186 54 -454 77 -634 57z m287 -665 c205 -43 305
-188 323 -469 11 -182 -24 -360 -92 -458 -68 -97 -186 -149 -341 -149 -155 -1
-258 44 -335 146 -62 81 -89 183 -95 350 -11 292 66 477 228 550 101 45 198
54 312 30z"/>
<path fill='currentColor' d="M18900 3649 c-52 -5 -142 -20 -200 -33 -218 -49 -360 -125 -487 -259
-122 -129 -173 -264 -173 -462 0 -187 35 -281 144 -390 110 -110 242 -171 659
-305 238 -77 286 -98 330 -138 37 -35 38 -92 2 -121 -121 -95 -642 -11 -989
160 -43 22 -80 39 -82 39 -2 0 -3 -156 -2 -347 l3 -348 60 -32 c214 -115 620
-185 941 -163 341 25 545 105 706 279 117 126 168 263 168 451 0 213 -65 358
-214 478 -124 100 -259 165 -581 282 -339 123 -385 151 -385 235 0 34 5 48 25
63 52 41 69 39 524 -77 l431 -109 80 244 c44 134 80 247 80 252 0 4 -91 70
-202 145 l-203 136 -85 11 c-125 15 -441 20 -550 9z"/>
<path fill='currentColor' d="M13042 3522 l-32 -98 35 -174 35 -173 0 -899 0 -899 688 4 c743 4
738 4 947 62 376 106 615 380 692 795 26 139 25 516 -1 655 -45 238 -128 406
-268 541 -78 76 -136 115 -241 164 -105 50 -202 76 -368 100 -123 18 -190 20
-794 20 l-661 0 -32 -98z m1179 -533 c189 -19 271 -50 343 -130 73 -80 106
-203 106 -392 -1 -339 -108 -494 -371 -542 -55 -10 -157 -16 -285 -18 l-199
-2 -3 548 -2 547 154 0 c85 0 200 -5 257 -11z"/>
<path fill='currentColor' d="M15830 2703 l0 -918 -31 -156 -31 -157 32 -96 32 -96 927 0 927 0 59
63 c33 34 78 81 99 104 l39 41 -194 206 -194 205 -462 1 -463 0 0 159 0 160
33 -5 c137 -18 399 -34 576 -34 l211 0 0 275 0 275 -410 0 -410 0 0 135 0 135
308 -1 c225 0 348 -5 459 -17 l151 -18 107 275 c58 151 104 279 101 286 -2 6
-36 30 -74 53 l-70 42 -861 0 -861 0 0 -917z"/>
</g>
</svg>
